<svg width="42" height="35" viewBox="0 0 42 35" fill="none" xmlns="http://www.w3.org/2000/svg">
<path d="M41.332 4.07159C40.3988 4.48614 39.4301 4.81319 38.4361 5.04996C39.5314 4.00726 40.3549 2.70307 40.8195 1.24736C40.9521 0.831777 40.5016 0.472414 40.127 0.694926C38.7442 1.51665 37.2546 2.1331 35.6997 2.52734C35.6095 2.55022 35.5164 2.56181 35.423 2.56181C35.1398 2.56181 34.8644 2.45645 34.6478 2.26523C32.9935 0.804489 30.8657 0 28.6566 0C27.7007 0 26.7356 0.149265 25.788 0.44369C22.8519 1.356 20.5865 3.78229 19.8758 6.77578C19.6091 7.8986 19.5369 9.02245 19.661 10.116C19.6753 10.2417 19.616 10.3294 19.5794 10.3705C19.5152 10.4427 19.4242 10.484 19.3297 10.484C19.3191 10.484 19.3083 10.4835 19.2975 10.4825C12.8707 9.88428 7.07521 6.78235 2.97869 1.74819C2.76979 1.49141 2.3692 1.52291 2.2027 1.80902C1.40049 3.1878 0.976556 4.76477 0.976556 6.36944C0.976556 8.82866 1.96277 11.1462 3.67583 12.8357C2.95544 12.6646 2.2582 12.3951 1.61052 12.0347C1.29717 11.8603 0.911634 12.0845 0.907231 12.4435C0.86238 16.0969 2.99743 19.3476 6.1958 20.8115C6.13139 20.813 6.06698 20.8137 6.00247 20.8137C5.49548 20.8137 4.98215 20.7647 4.47691 20.6679C4.12404 20.6004 3.82759 20.9358 3.93715 21.2785C4.97529 24.5255 7.7659 26.9189 11.1054 27.4623C8.33381 29.3262 5.10626 30.3094 1.74702 30.3094L0.699768 30.3088C0.377105 30.3088 0.104208 30.5195 0.0219802 30.8326C-0.0590184 31.141 0.0901789 31.4663 0.365329 31.6266C4.15066 33.8336 8.46837 35 12.8536 35C16.692 35 20.2826 34.2369 23.5256 32.7319C26.4986 31.3522 29.1258 29.38 31.3342 26.87C33.3914 24.5318 35.0001 21.8326 36.1154 18.8475C37.1787 16.0021 37.7406 12.9659 37.7406 10.0672V9.92911C37.7405 9.46367 37.9507 9.02573 38.3172 8.72761C39.7084 7.59607 40.9198 6.26408 41.9176 4.76867C42.1811 4.37381 41.7656 3.87893 41.332 4.07159Z" fill="#76A9EA"/>
</svg>
